<?xml version="1.0" encoding="UTF-8"?>
<svg id="Camada_2" data-name="Camada 2" xmlns="http://www.w3.org/2000/svg" viewBox="0 0 224.44 38.76">
  <defs>
    <style>
      .cls-1 {
        fill: #36a9e1;
      }

      .cls-1, .cls-2 {
        stroke-width: 0px;
      }

      .cls-2 {
        fill: #fff;
      }
    </style>
  </defs>
  <g id="Camada_1-2" data-name="Camada 1">
    <g>
      <path class="cls-1" d="M19.38,0c-5.68,0-10.79,2.45-14.34,6.36-.07.06-.12.12-.17.19C1.84,9.97,0,14.47,0,19.38c0,10.69,8.69,19.38,19.38,19.38s19.38-8.69,19.38-19.38S30.07,0,19.38,0ZM19.38,36.93c-9.68,0-17.55-7.87-17.55-17.55,0-4.37,1.61-8.38,4.26-11.45,7.31-.75,13.65.71,18.35,4.23.37.28.72.56,1.04.84-6.63-3.67-11.64-2.64-14.91-.83-2.58,1.43-4.18,4.23-4.08,7.14.08,2.25,1.25,6.5,8.19,9.71,5.46,2.53,10.36,3.11,13.5,3.15.14,0,.28,0,.41,0,1.15,0,2.15-.07,2.95-.15-3.16,3.04-7.45,4.92-12.17,4.92ZM13.77,22.07c1.26,3.28,5.22,5.89,8.58,7.59-2.12-.45-4.45-1.18-6.9-2.31-4.48-2.07-7.02-4.96-7.13-8.11-.08-2.23,1.15-4.38,3.14-5.47,3.66-2.03,7.89-1.84,12.46.48-3.67-.83-7.82-.83-9.69,2.49-.99,1.75-1.14,3.55-.45,5.33ZM33.38,29.86s-1.32.34-3.48.44c-1.05,0-1.48-.1-2.24-.33-2.19-.8-10.46-4.1-12.19-8.57-.49-1.27-.38-2.5.34-3.77,1.13-2,3.77-2.53,7.84-1.57,3.27.77,6.22,2.26,6.24,2.27h0c.37.19.83.11,1.11-.22.24-.28.28-.66.14-.97h0c-.06-.14-1.58-3.39-5.52-6.38-2.3-1.74-4.96-3.04-7.91-3.85-2.93-.81-6.16-1.13-9.61-.97,3.05-2.57,6.99-4.11,11.28-4.11,9.68,0,17.55,7.87,17.55,17.55,0,3.92-1.29,7.54-3.47,10.47-.03,0-.06.01-.08.02Z"/>
      <g>
        <g>
          <g>
            <path class="cls-1" d="M53.16,32.34c1.11.27,2.12.18,2.64-.23.29-.23.44-.55.44-.95,0-.64-.35-1.03-1.29-1.43l-.43-.18c-.47-.19-.67-.38-.67-.66,0-.13.05-.24.15-.32.25-.21.8-.24,1.69-.09.07.01.16.01.22-.04.06-.05.07-.13.07-.19v-.15c0-.17-.07-.26-.24-.3-1.03-.24-1.89-.16-2.37.22-.27.21-.4.51-.4.9,0,.6.34.99,1.21,1.36l.47.2c.51.21.71.4.71.69,0,.16-.06.29-.18.39-.43.36-1.51.21-1.95.13-.03,0-.06,0-.09,0-.05,0-.1,0-.13.04-.06.05-.07.13-.07.19v.14c0,.17.07.26.23.3Z"/>
            <path class="cls-1" d="M64.25,27.98c0-.18-.09-.26-.26-.26h-.37c-.18,0-.26.09-.26.26v2.59c0,.78-.37,1.13-1.21,1.13s-1.21-.36-1.21-1.13v-2.59c0-.18-.09-.26-.26-.26h-.37c-.18,0-.26.09-.26.26v2.54c0,1.4.61,1.98,2.1,1.98s2.1-.57,2.1-1.98v-2.54Z"/>
            <path class="cls-1" d="M70.93,30.36l.11-.02c.7-.16,1.02-.54,1.02-1.24,0-.98-.59-1.38-2.03-1.38h-.62c-.78,0-1.08.28-1.08.99v3.45c0,.18.09.26.26.26h.37c.18,0,.26-.09.26-.26v-1.74h.83l.93,1.8c.07.14.17.2.33.2h.49c.1,0,.17-.03.2-.07.03-.05.01-.13-.04-.21l-1.04-1.78ZM69.21,29.77v-.96c0-.1,0-.39.39-.39h.54c.73,0,1.02.19,1.02.67s-.31.68-1.02.68h-.93Z"/>
            <path class="cls-1" d="M79.36,27.98c0-.18-.09-.26-.26-.26h-2.03c-.78,0-1.08.28-1.08.99v3.45c0,.18.09.26.26.26h.37c.18,0,.26-.09.26-.26v-1.72h1.95c.18,0,.26-.09.26-.26v-.21c0-.18-.09-.26-.26-.26h-1.95v-.86c0-.19.05-.39.45-.39h1.77c.18,0,.26-.09.26-.26v-.21Z"/>
            <path class="cls-1" d="M91.34,27.98c0-.18-.09-.26-.26-.26h-3.49c-.18,0-.26.09-.26.26v.26c0,.18.09.26.26.26h1.29v3.66c0,.18.09.26.26.26h.38c.18,0,.26-.09.26-.26v-3.66h1.29c.18,0,.26-.09.26-.26v-.26Z"/>
            <path class="cls-1" d="M98.46,31.96c0-.18-.09-.26-.26-.26h-1.9c-.39,0-.45-.2-.45-.39v-.89h1.85c.18,0,.26-.09.26-.26v-.19c0-.18-.09-.26-.26-.26h-1.85v-.85c0-.19.05-.39.45-.39h1.77c.18,0,.26-.09.26-.26v-.21c0-.18-.09-.26-.26-.26h-2.03c-.78,0-1.08.28-1.08.99v2.72c0,.71.3.99,1.08.99h2.16c.18,0,.26-.09.26-.26v-.21Z"/>
            <path class="cls-1" d="M102.04,30.07c0,.88.28,1.57.8,1.98.57.45,1.39.56,2.38.32.18-.05.27-.15.27-.32v-.25c0-.09-.02-.15-.07-.19-.06-.05-.16-.04-.23-.03-.84.17-1.39.12-1.75-.17-.31-.25-.46-.68-.46-1.34s.15-1.09.46-1.34c.35-.29.91-.34,1.75-.17.07.01.17.02.23-.03.04-.04.07-.1.07-.19v-.25c0-.17-.07-.27-.23-.31h0c-.36-.09-.69-.13-1-.13-.56,0-1.04.15-1.41.44-.53.41-.81,1.1-.81,1.99Z"/>
            <path class="cls-1" d="M113.51,27.98c0-.18-.09-.26-.26-.26h-.37c-.18,0-.26.09-.26.26v1.64h-2.42v-1.64c0-.18-.09-.26-.26-.26h-.37c-.18,0-.26.09-.26.26v4.18c0,.18.09.26.26.26h.37c.18,0,.26-.09.26-.26v-1.76h2.42v1.76c0,.18.09.26.26.26h.37c.18,0,.26-.09.26-.26v-4.18Z"/>
            <path class="cls-1" d="M121.78,27.98c0-.18-.09-.26-.26-.26h-.34c-.18,0-.26.09-.26.26v3.17c.01.18-.07.22-.15.22-.1,0-.15-.08-.19-.16l-1.2-2.7c-.34-.73-.61-.78-1.01-.78-.56,0-.79.12-.79.86v3.59c0,.18.09.26.26.26h.34c.18,0,.26-.09.26-.26v-3.17c-.01-.18.07-.22.15-.22.1,0,.15.08.19.16l1.2,2.7c.34.73.62.78,1.01.78.62,0,.79-.18.79-.86v-3.59Z"/>
            <path class="cls-1" d="M127.83,27.65c-1.38,0-2.2.91-2.2,2.42s.82,2.42,2.2,2.42,2.2-.91,2.2-2.42-.82-2.42-2.2-2.42ZM127.83,31.74c-.84,0-1.25-.55-1.25-1.67s.41-1.67,1.25-1.67,1.25.55,1.25,1.67-.41,1.67-1.25,1.67Z"/>
            <path class="cls-1" d="M137.09,31.9c0-.18-.09-.26-.26-.26h-1.6c-.4,0-.45-.23-.45-.4v-3.26c0-.18-.09-.26-.26-.26h-.37c-.18,0-.26.09-.26.26v3.45c0,.71.3.99,1.08.99h1.86c.18,0,.26-.09.26-.26v-.26Z"/>
            <path class="cls-1" d="M142.71,27.65c-1.38,0-2.2.91-2.2,2.42s.82,2.42,2.2,2.42,2.2-.91,2.2-2.42-.82-2.42-2.2-2.42ZM142.71,31.74c-.84,0-1.25-.55-1.25-1.67s.41-1.67,1.25-1.67,1.25.55,1.25,1.67-.41,1.67-1.25,1.67Z"/>
            <path class="cls-1" d="M152.48,30.25c0-.18-.09-.26-.26-.26h-.36c-.18,0-.26.09-.26.26v1c0,.4-.23.44-.76.44-.92,0-1.37-.53-1.37-1.62,0-.65.14-1.07.45-1.33.38-.32,1.02-.38,2.02-.2.07.01.17.02.23-.03.04-.04.07-.1.07-.19v-.23c0-.17-.07-.27-.24-.31-.4-.09-.78-.14-1.12-.14-.63,0-1.16.16-1.55.47-.51.41-.78,1.08-.78,1.96,0,1.56.85,2.42,2.39,2.42,1.2,0,1.55-.22,1.55-.98v-1.26Z"/>
            <path class="cls-1" d="M158.51,30.32l.04-.02c.24-.14.45-.44.84-1.05l.8-1.24c.06-.09.07-.17.05-.21-.03-.05-.1-.07-.2-.07h-.44c-.16,0-.26.06-.34.19l-.75,1.26c-.19.31-.28.41-.47.41s-.28-.1-.46-.41l-.75-1.26c-.08-.14-.18-.19-.34-.19h-.44c-.1,0-.17.03-.2.07-.03.05-.01.13.05.21l.8,1.24c.39.61.6.91.84,1.05l.04.02v1.84c0,.18.09.26.26.26h.43c.18,0,.26-.09.26-.26v-1.84Z"/>
          </g>
          <g>
            <path class="cls-2" d="M70.72,18.94s-.57.15-.79-.4-4.28-11.74-4.28-11.74c0,0-.07-.49-.6-.49h-4.09s-.43-.09-.62.51-4.03,11.54-4.03,11.54c0,0-.15.75-.75.75s-.8-.87-.8-.87l-4.21-11.49s.01-.49-.49-.49h-2.99s-.42-.03-.23.49l5.54,15.26s.15.67.67.67h4.79s.58.16.84-.67c.26-.84,3.83-10.56,3.83-10.56,0,0,.15-.29.55-.29s.76.68.76.68l3.64,10.25s.18.67.67.67h4.94s.36.06.62-.67c.26-.73,5.61-15.34,5.61-15.34,0,0,.29-.44-.44-.44h-2.95s-.4-.11-.58.66-4.15,11.62-4.15,11.62c0,0-.11.38-.38.38"/>
            <path class="cls-2" d="M80.04,22.76h3.12s.38.05.62-.49c.33-.75,4.31-10.17,4.31-10.17,0,0,.75-2.82,3.53-2.82,2.61,0,3.5,2.53,3.5,2.53l4.33,10.41s.12.56.62.56h3.24s.4-.06.2-.56-4.99-11.49-4.99-11.49c0,0-1.28-4.43-6.71-4.47s-6.79,3.65-6.79,3.65l-5.08,12.06s-.5.79.12.79Z"/>
            <path class="cls-2" d="M127.28,6.28h-3.12s-.38-.05-.62.49c-.33.75-4.31,10.17-4.31,10.17,0,0-.75,2.73-3.53,2.73-2.61,0-3.5-2.44-3.5-2.44l-4.33-10.41s-.12-.56-.62-.56h-3.24s-.4.06-.2.56,4.99,11.49,4.99,11.49c0,0,1.28,4.43,6.71,4.47,5.39.04,6.79-3.65,6.79-3.65l5.08-12.06s.5-.79-.12-.79Z"/>
            <path class="cls-2" d="M137.03,9.05h12.21c.45,0,.45-.45.45-.45v-1.86c0-.51-.5-.51-.5-.51h-11.9c-6.46,0-6.69,5.56-6.69,5.56v4.99s.24,6.03,6.69,6.03h11.9s.5,0,.5-.55v-1.82s0-.49-.45-.49h-12.21s-2.46-.16-2.46-3.17c0,0-.11-1.13,1.15-1.13h11.91s.56.09.56-.61v-1.66c0-.64-.56-.56-.56-.56h-11.91c-1.26,0-1.15-1.03-1.15-1.03,0-2.9,2.46-2.74,2.46-2.74Z"/>
            <path class="cls-2" d="M168.68,12.83h-9.78s-.66.03-1.15-.43c-.38-.35-.73-.88-.73-1.59,0-.56.35-.97.71-1.28.7-.61,2.07-.49,2.09-.49h13.44s.25,0,.42-.15c.11-.1.16-.24.16-.41v-1.59c.01-.07.03-.33-.11-.5-.06-.07-.23-.16-.43-.16h-15.29s-4.63.37-4.63,4.42,3.99,4.99,4.74,4.99l9.99.02s1.48-.18,2.16.4c.44.37.65.94.65,1.65,0,2.5-2.11,2.27-2.2,2.27h-13.47s-.29-.04-.49.14c-.14.12-.21.3-.21.53v1.4c-.01.06-.04.3.11.48.12.15.33.23.6.23h14.87s4.99-.11,4.99-5.3c0-1.38-.45-2.49-1.35-3.3-1.87-1.69-4.97-1.34-5.1-1.33Z"/>
            <path class="cls-2" d="M218.8,9.04h-10.71s-4.19-.11-4.19,5.83h0s.03,5.11,4.67,5.11h6.4l3.66,2.79h-10.84s-7.38.16-7.38-8.51c0-8.16,7.35-8.02,7.35-8.02h11s.41-.09.41.43v1.97s.06.41-.37.41Z"/>
            <polygon class="cls-1" points="211.6 15.66 219.17 15.66 219.17 21.71 211.6 15.66"/>
            <g>
              <path class="cls-2" d="M196.74,19.96h-12.21s-2.46-.16-2.46-3.17c0,0-.11-1.13,1.15-1.13h11.91s.56.09.56-.61v-1.66c0-.64-.56-.56-.56-.56h-11.91s-.09,0-.13,0h-4.24c-.42,0-.75.34-.75.75v3.22s.24,6.03,6.69,6.03h11.9s.5,0,.5-.55v-1.82s0-.49-.45-.49Z"/>
              <path class="cls-2" d="M196.69,6.24h-11.9c-2.89,0-4.54,1.12-5.47,2.35-.14.19,0,.46.23.46h7.47c3.48,0,9.4,0,9.72,0,.45,0,.45-.45.45-.45v-1.86c0-.51-.5-.51-.5-.51Z"/>
            </g>
          </g>
        </g>
        <path class="cls-2" d="M221.67,7.9h0c0-.76.61-1.4,1.39-1.4s1.39.63,1.39,1.39h0c0,.76-.61,1.4-1.39,1.4s-1.39-.63-1.39-1.39ZM224.28,7.89h0c0-.68-.53-1.24-1.23-1.24s-1.23.57-1.23,1.24h0c0,.68.53,1.24,1.23,1.24s1.23-.57,1.23-1.24ZM223.68,8.54c.02.06-.02.14-.09.16,0,0-.02,0-.05,0s-.06,0-.1-.02c-.03-.02-.06-.05-.07-.08-.03-.07-.05-.15-.05-.29,0-.04-.02-.07-.03-.1s-.04-.05-.07-.07c-.05-.03-.1-.05-.13-.06h-.27v.51c0,.07-.06.13-.14.13s-.13-.06-.13-.13v-1.38c0-.07.06-.13.13-.13h.42c.27,0,.49.22.49.5,0,.15-.07.29-.18.38.03.02.06.05.09.09.04.06.07.15.07.25,0,.07,0,.12,0,.14.04,0,.07.04.09.08ZM223.35,7.6c0-.14-.11-.24-.24-.24h-.29v.48h.29c.13,0,.24-.11.24-.24Z"/>
      </g>
    </g>
  </g>
</svg>